<svg width="301" height="47" viewBox="0 0 301 47" fill="none" xmlns="http://www.w3.org/2000/svg">
<path d="M21.1485 17.6128H9.33691V21.1442H21.1485V17.6128Z" fill="white"/>
<path d="M21.1485 17.6128H9.33691V21.1442H21.1485V17.6128Z" fill="#FFB700"/>
<path d="M30.5653 16.49V0H0V30.5653H16.4799V47H46.9899V16.49H30.5653ZM42.2965 28.201H37.6332V25.8417H25.8467V37.608H42.2965V42.3015H21.1281V25.8417H4.70352V4.71358H23.4975V9.34668H9.33661V12.9133H25.8467V21.1281H42.2965V28.201Z" fill="white"/>
<path d="M30.5653 16.49V0H0V30.5653H16.4799V47H46.9899V16.49H30.5653ZM42.2965 28.201H37.6332V25.8417H25.8467V37.608H42.2965V42.3015H21.1281V25.8417H4.70352V4.71358H23.4975V9.34668H9.33661V12.9133H25.8467V21.1281H42.2965V28.201Z" fill="#FFB700"/>
<path d="M70.3322 38.8529C69.2775 38.8529 68.4002 38.5029 67.7002 37.8029C67.0002 37.0936 66.6502 36.2162 66.6502 35.1709C66.6502 34.1256 67.0002 33.2529 67.7002 32.5529C68.4002 31.8436 69.2775 31.4889 70.3322 31.4889C71.0228 31.4889 71.6435 31.6569 72.1942 31.9929C72.7448 32.3196 73.1555 32.7629 73.4262 33.3229L72.4042 33.9109C72.2268 33.5376 71.9515 33.2389 71.5782 33.0149C71.2142 32.7909 70.7988 32.6789 70.3322 32.6789C69.6322 32.6789 69.0442 32.9169 68.5682 33.3929C68.1015 33.8689 67.8682 34.4616 67.8682 35.1709C67.8682 35.8709 68.1015 36.4589 68.5682 36.9349C69.0442 37.4109 69.6322 37.6489 70.3322 37.6489C70.7988 37.6489 71.2188 37.5416 71.5922 37.3269C71.9655 37.1029 72.2502 36.8042 72.4462 36.4309L73.4822 37.0329C73.1835 37.5836 72.7542 38.0269 72.1942 38.3629C71.6342 38.6896 71.0135 38.8529 70.3322 38.8529ZM80.4834 31.6709V32.8469H78.1034V38.6709H76.8854V32.8469H74.4914V31.6709H80.4834ZM86.1148 31.4889C87.0948 31.4889 87.9301 31.8482 88.6208 32.5669C89.3114 33.2762 89.6568 34.1442 89.6568 35.1709C89.6568 36.1976 89.3114 37.0702 88.6208 37.7889C87.9301 38.4982 87.0948 38.8529 86.1148 38.8529C84.9574 38.8529 84.0754 38.3909 83.4688 37.4669V41.4709H82.2508V31.6709H83.4688V32.8749C84.0754 31.9509 84.9574 31.4889 86.1148 31.4889ZM85.9608 37.6769C86.6608 37.6769 87.2488 37.4389 87.7248 36.9629C88.2008 36.4776 88.4388 35.8802 88.4388 35.1709C88.4388 34.4616 88.2008 33.8689 87.7248 33.3929C87.2488 32.9076 86.6608 32.6649 85.9608 32.6649C85.2514 32.6649 84.6588 32.9076 84.1828 33.3929C83.7068 33.8689 83.4688 34.4616 83.4688 35.1709C83.4688 35.8802 83.7068 36.4776 84.1828 36.9629C84.6588 37.4389 85.2514 37.6769 85.9608 37.6769ZM97.7181 37.7889C96.9995 38.4982 96.1268 38.8529 95.1001 38.8529C94.0735 38.8529 93.2008 38.4982 92.4821 37.7889C91.7728 37.0796 91.4181 36.2069 91.4181 35.1709C91.4181 34.1349 91.7728 33.2622 92.4821 32.5529C93.2008 31.8436 94.0735 31.4889 95.1001 31.4889C96.1268 31.4889 96.9995 31.8436 97.7181 32.5529C98.4368 33.2622 98.7961 34.1349 98.7961 35.1709C98.7961 36.2069 98.4368 37.0796 97.7181 37.7889ZM95.1001 37.6629C95.8001 37.6629 96.3881 37.4249 96.8641 36.9489C97.3401 36.4729 97.5781 35.8802 97.5781 35.1709C97.5781 34.4616 97.3401 33.8689 96.8641 33.3929C96.3881 32.9169 95.8001 32.6789 95.1001 32.6789C94.4095 32.6789 93.8261 32.9169 93.3501 33.3929C92.8741 33.8689 92.6361 34.4616 92.6361 35.1709C92.6361 35.8802 92.8741 36.4729 93.3501 36.9489C93.8261 37.4249 94.4095 37.6629 95.1001 37.6629ZM106.014 31.6709H106.994V38.6709H105.79V33.7569L101.912 38.6709H100.932V31.6709H102.136V36.5849L106.014 31.6709ZM114.756 31.6709V32.8469H112.376V38.6709H111.158V32.8469H108.764V31.6709H114.756ZM117.104 35.7309C117.225 36.3562 117.51 36.8416 117.958 37.1869C118.415 37.5322 118.975 37.7049 119.638 37.7049C120.562 37.7049 121.234 37.3642 121.654 36.6829L122.69 37.2709C122.009 38.3256 120.982 38.8529 119.61 38.8529C118.499 38.8529 117.594 38.5076 116.894 37.8169C116.203 37.1169 115.858 36.2349 115.858 35.1709C115.858 34.1162 116.199 33.2389 116.88 32.5389C117.561 31.8389 118.443 31.4889 119.526 31.4889C120.553 31.4889 121.388 31.8529 122.032 32.5809C122.685 33.2996 123.012 34.1676 123.012 35.1849C123.012 35.3622 122.998 35.5442 122.97 35.7309H117.104ZM119.526 32.6369C118.873 32.6369 118.331 32.8236 117.902 33.1969C117.473 33.5609 117.207 34.0509 117.104 34.6669H121.78C121.677 34.0042 121.416 33.5002 120.996 33.1549C120.576 32.8096 120.086 32.6369 119.526 32.6369ZM130.677 31.6709V38.6709H129.459V32.8469H126.701V35.7029C126.701 36.8509 126.467 37.6536 126.001 38.1109C125.543 38.5589 124.895 38.7456 124.055 38.6709V37.5229C124.531 37.5882 124.885 37.4856 125.119 37.2149C125.361 36.9349 125.483 36.4216 125.483 35.6749V31.6709H130.677ZM136.176 34.1909C136.876 34.1909 137.455 34.4009 137.912 34.8209C138.379 35.2316 138.612 35.7682 138.612 36.4309C138.612 37.0936 138.379 37.6349 137.912 38.0549C137.455 38.4656 136.876 38.6709 136.176 38.6709H133.222V31.6709H134.44V34.1909H136.176ZM136.176 37.5369C136.522 37.5369 136.811 37.4389 137.044 37.2429C137.287 37.0376 137.408 36.7669 137.408 36.4309C137.408 36.0949 137.287 35.8242 137.044 35.6189C136.811 35.4136 136.522 35.3109 136.176 35.3109H134.44V37.5369H136.176ZM145.465 31.6709H146.683V38.6709H145.465V35.7449H141.839V38.6709H140.621V31.6709H141.839V34.5829H145.465V31.6709ZM155.033 31.6709H156.251V38.6709H155.033V37.4669C154.427 38.3909 153.545 38.8529 152.387 38.8529C151.407 38.8529 150.572 38.4982 149.881 37.7889C149.191 37.0702 148.845 36.1976 148.845 35.1709C148.845 34.1442 149.191 33.2762 149.881 32.5669C150.572 31.8482 151.407 31.4889 152.387 31.4889C153.545 31.4889 154.427 31.9509 155.033 32.8749V31.6709ZM152.541 37.6769C153.251 37.6769 153.843 37.4389 154.319 36.9629C154.795 36.4776 155.033 35.8802 155.033 35.1709C155.033 34.4616 154.795 33.8689 154.319 33.3929C153.843 32.9076 153.251 32.6649 152.541 32.6649C151.841 32.6649 151.253 32.9076 150.777 33.3929C150.301 33.8689 150.063 34.4616 150.063 35.1709C150.063 35.8802 150.301 36.4776 150.777 36.9629C151.253 37.4389 151.841 37.6769 152.541 37.6769ZM164.033 31.6709V38.6709H162.829V36.1509H161.807L159.847 38.6709H158.363L160.407 36.0809C159.884 35.9502 159.46 35.6889 159.133 35.2969C158.806 34.9049 158.643 34.4476 158.643 33.9249C158.643 33.2809 158.872 32.7442 159.329 32.3149C159.786 31.8856 160.36 31.6709 161.051 31.6709H164.033ZM161.093 35.0589H162.829V32.8049H161.093C160.748 32.8049 160.454 32.9076 160.211 33.1129C159.968 33.3182 159.847 33.5936 159.847 33.9389C159.847 34.2749 159.968 34.5456 160.211 34.7509C160.454 34.9562 160.748 35.0589 161.093 35.0589ZM176.701 38.6709H175.189L171.997 35.3529V38.6709H170.779V31.6709H171.997V34.7649L175.021 31.6709H176.589L173.243 35.0589L176.701 38.6709ZM183.799 37.7889C183.08 38.4982 182.208 38.8529 181.181 38.8529C180.154 38.8529 179.282 38.4982 178.563 37.7889C177.854 37.0796 177.499 36.2069 177.499 35.1709C177.499 34.1349 177.854 33.2622 178.563 32.5529C179.282 31.8436 180.154 31.4889 181.181 31.4889C182.208 31.4889 183.08 31.8436 183.799 32.5529C184.518 33.2622 184.877 34.1349 184.877 35.1709C184.877 36.2069 184.518 37.0796 183.799 37.7889ZM181.181 37.6629C181.881 37.6629 182.469 37.4249 182.945 36.9489C183.421 36.4729 183.659 35.8802 183.659 35.1709C183.659 34.4616 183.421 33.8689 182.945 33.3929C182.469 32.9169 181.881 32.6789 181.181 32.6789C180.49 32.6789 179.907 32.9169 179.431 33.3929C178.955 33.8689 178.717 34.4616 178.717 35.1709C178.717 35.8802 178.955 36.4729 179.431 36.9489C179.907 37.4249 180.49 37.6629 181.181 37.6629ZM194.013 31.6709V38.6709H192.823V33.5889L190.597 37.1729H190.443L188.217 33.5889V38.6709H187.013V31.6709H188.315L190.513 35.2129L192.711 31.6709H194.013ZM202.634 31.6709V38.6709H201.416V32.8329H197.79V38.6709H196.572V31.6709H202.634ZM210.984 31.6709H212.202V38.6709H210.984V37.4669C210.378 38.3909 209.496 38.8529 208.338 38.8529C207.358 38.8529 206.523 38.4982 205.832 37.7889C205.142 37.0702 204.796 36.1976 204.796 35.1709C204.796 34.1442 205.142 33.2762 205.832 32.5669C206.523 31.8482 207.358 31.4889 208.338 31.4889C209.496 31.4889 210.378 31.9509 210.984 32.8749V31.6709ZM208.492 37.6769C209.202 37.6769 209.794 37.4389 210.27 36.9629C210.746 36.4776 210.984 35.8802 210.984 35.1709C210.984 34.4616 210.746 33.8689 210.27 33.3929C209.794 32.9076 209.202 32.6649 208.492 32.6649C207.792 32.6649 207.204 32.9076 206.728 33.3929C206.252 33.8689 206.014 34.4616 206.014 35.1709C206.014 35.8802 206.252 36.4776 206.728 36.9629C207.204 37.4389 207.792 37.6769 208.492 37.6769ZM219.592 31.6709H220.81V38.6709H219.592V35.7449H215.966V38.6709H214.748V31.6709H215.966V34.5829H219.592V31.6709ZM228.446 31.6709H229.426V38.6709H228.222V33.7569L224.344 38.6709H223.364V31.6709H224.568V36.5849L228.446 31.6709ZM237.216 31.6709V38.6709H236.012V36.1509H234.99L233.03 38.6709H231.546L233.59 36.0809C233.067 35.9502 232.642 35.6889 232.316 35.2969C231.989 34.9049 231.826 34.4476 231.826 33.9249C231.826 33.2809 232.054 32.7442 232.512 32.3149C232.969 31.8856 233.543 31.6709 234.234 31.6709H237.216ZM234.276 35.0589H236.012V32.8049H234.276C233.93 32.8049 233.636 32.9076 233.394 33.1129C233.151 33.3182 233.03 33.5936 233.03 33.9389C233.03 34.2749 233.151 34.5456 233.394 34.7509C233.636 34.9562 233.93 35.0589 234.276 35.0589Z" fill="#342733"/>
<path d="M65.7861 19.3004V5.87891H77.1737V8.5632H68.4704V11.2682H76.5027L77.8293 12.6103V17.9789L76.5027 19.3056L65.7861 19.3004ZM75.1812 16.6109V13.9679H68.4704V16.6316L75.1812 16.6109Z" fill="#342733"/>
<path d="M79.3633 19.3016V9.90144L83.3691 5.875H91.4065V19.2965H88.7377V8.5593H84.7112L82.0476 11.2436V19.3016H79.3633Z" fill="#342733"/>
<path d="M93.1299 19.3016V9.92209L97.1409 5.875H105.173V19.2965H102.509V15.2907H95.8297V19.3016H93.1299ZM102.509 12.5909V8.5593H98.483L95.8297 11.2642V12.6064L102.509 12.5909Z" fill="#342733"/>
<path d="M107.094 19.3009V5.87939H118.481V8.56369H109.768V19.3009H107.094Z" fill="#342733"/>
<path d="M121.15 19.3015L119.823 17.9748V7.2583L121.15 5.89551H130.545L131.866 7.2583V17.9955L130.545 19.3222L121.15 19.3015ZM129.203 16.612V8.55916H122.492V16.612H129.203Z" fill="#342733"/>
<path d="M133.787 19.3009V5.87939H144.509L145.83 7.25768V11.2841L144.509 12.6263L145.83 13.9684V17.9949L144.509 19.3215L133.787 19.3009ZM143.167 11.2635V8.55853H136.456V11.2635H143.167ZM143.167 16.6114V13.9684H136.456V16.6321L143.167 16.6114Z" fill="#342733"/>
<path d="M147.745 19.3009V5.87939H159.138V8.56369H150.435V11.2686H158.467V13.9684H150.435V16.6321H159.138V19.3215L147.745 19.3009Z" fill="#342733"/>
<path d="M175.595 21.9859V19.3016H160.873V5.88016H163.557V16.6174H167.584V5.875H170.268V16.6122H174.294V5.875H176.963V16.6122H178.305V21.9859H175.595Z" fill="#342733"/>
<path d="M179.812 19.3009V5.87939H191.205V8.56369H182.497V11.2686H190.534V13.9684H182.497V16.6321H191.205V19.3215L179.812 19.3009Z" fill="#342733"/>
<path d="M192.93 19.3016V5.88016H195.614V11.2642H202.325V5.875H204.988V19.2965H202.325V13.9692H195.614V19.3016H192.93Z" fill="#342733"/>
<path d="M208.214 19.3015L206.893 17.9748V7.2583L208.214 5.89551H217.609L218.936 7.2583V9.92195H216.267V8.5798H209.556V16.6327H216.267V15.2905H218.936V17.9748L217.609 19.3015H208.214Z" fill="#342733"/>
<path d="M220.66 19.3016V5.88016H223.334V11.2642H227.345L230.029 8.57994V5.875H232.693V9.92209L230.045 12.6064L232.709 15.2907V19.3016H230.045V16.6122L227.355 13.9692H223.334V19.3016H220.66Z" fill="#342733"/>
<path d="M235.754 19.3015L234.428 17.9748V7.2583L235.754 5.89551H245.149L246.471 7.2583V9.92195H243.807V8.5798H237.097V16.6327H243.807V15.2905H246.471V17.9748L245.149 19.3015H235.754Z" fill="#342733"/>
<path d="M252.319 19.3016V8.5593H247.621V5.875H259.664V8.5593H255.018V19.3016H252.319Z" fill="#342733"/>
<path d="M261.018 19.3009V5.87939H271.739L273.05 7.25768V13.9684L271.729 15.3106H263.692V19.3215L261.018 19.3009ZM270.397 12.5901V8.55853H263.686V12.6056L270.397 12.5901Z" fill="#342733"/>
<path d="M276.101 19.3015L274.779 17.9748V7.2583L276.101 5.89551H285.496L286.828 7.2583V17.9955L285.501 19.3222L276.101 19.3015ZM284.154 16.612V8.55916H277.443V16.612H284.154Z" fill="#342733"/>
<path d="M288.738 19.3016V5.875H291.423V14.8106L298.118 5.875H300.781V19.3016H298.118V10.3454L291.423 19.3016H288.738Z" fill="#342733"/>
<path d="M298.191 2.68555H292.682V4.54018H298.191V2.68555Z" fill="#342733"/>
</svg>
