<svg width="20" height="14" viewBox="0 0 20 14" fill="none" xmlns="http://www.w3.org/2000/svg">
<path d="M13.2606 7.87811L11.4476 9.69549C10.686 10.4484 9.45211 10.4608 8.67801 9.69549L6.79105 7.8042L1.25 13.3413C1.46973 13.4269 1.70664 13.4783 1.95629 13.4783H18.0432C18.2868 13.4783 18.5177 13.4281 18.733 13.3464L13.2606 7.87811Z" fill="#E0E0E0"/>
<path d="M0.164102 1.17725C0.0596484 1.41639 0 1.67936 0 1.95662V11.5221C0 11.8735 0.100508 12.1989 0.263398 12.4842L5.86523 6.87838L0.164102 1.17725Z" fill="#E0E0E0"/>
<path d="M18.0433 0H1.95633C1.63105 0 1.32875 0.0873439 1.05859 0.228399L9.5998 8.76955C9.84762 9.01736 10.278 9.01736 10.5215 8.76955L19.0225 0.272657C18.7334 0.103789 18.4017 0 18.0433 0Z" fill="#E0E0E0"/>
<path d="M19.8692 1.27051L14.187 6.95266L19.729 12.4987C19.8968 12.2102 20.0001 11.8796 20.0001 11.5225V1.95703C20.0001 1.71461 19.9502 1.48488 19.8692 1.27051Z" fill="#E0E0E0"/>
</svg>
